<svg id="Layer_1" data-name="Layer 1" xmlns="http://www.w3.org/2000/svg" xmlns:xlink="http://www.w3.org/1999/xlink" viewBox="0 0 512 512"><defs><style>.cls-1{fill:url(#Безымянный_градиент_7);}.cls-2{fill:url(#Безымянный_градиент_7-2);}.cls-3{fill:url(#Безымянный_градиент_7-3);}</style><linearGradient id="Безымянный_градиент_7" x1="59.87" y1="420.57" x2="452.13" y2="91.43" gradientUnits="userSpaceOnUse"><stop offset="0" stop-color="#1b2f84"/><stop offset="1" stop-color="#3159f7"/></linearGradient><linearGradient id="Безымянный_градиент_7-2" x1="180.14" y1="286.49" x2="344.33" y2="148.71" xlink:href="#Безымянный_градиент_7"/><linearGradient id="Безымянный_градиент_7-3" x1="243.76" y1="426.28" x2="268.28" y2="405.71" xlink:href="#Безымянный_градиент_7"/></defs><title>about</title><path class="cls-1" d="M256,512A256,256,0,0,1,75,75,256,256,0,0,1,437,437a254.33,254.33,0,0,1-181,75Zm0-480C132.49,32,32,132.49,32,256S132.49,480,256,480,480,379.51,480,256,379.51,32,256,32Z"/><path class="cls-2" d="M256,368a16,16,0,0,1-16-16,150.19,150.19,0,0,1,44.29-106.91A94,94,0,0,0,312,178.18,50.24,50.24,0,0,0,261.82,128h-3.64A50.24,50.24,0,0,0,208,178.18V184a16,16,0,0,1-32,0v-5.82A82.27,82.27,0,0,1,258.18,96h3.64A82.27,82.27,0,0,1,344,178.18a125.8,125.8,0,0,1-37.09,89.54A118.41,118.41,0,0,0,272,352,16,16,0,0,1,256,368Z"/><path class="cls-3" d="M256,432a16,16,0,1,1,0-32h0a16,16,0,0,1,0,32Z"/></svg>