<?xml version="1.0" encoding="utf-8"?>
<!-- Generator: Adobe Illustrator 23.0.1, SVG Export Plug-In . SVG Version: 6.00 Build 0)  -->
<svg version="1.1" id="Capa_1" xmlns="http://www.w3.org/2000/svg" xmlns:xlink="http://www.w3.org/1999/xlink" x="0px" y="0px"
	 viewBox="0 0 972 972" style="enable-background:new 0 0 972 972;" xml:space="preserve">
<style type="text/css">
	.st0{fill:url(#SVGID_1_);}
	.st1{fill:#FFFFFF;}
</style>
<linearGradient id="SVGID_1_" gradientUnits="userSpaceOnUse" x1="554.7536" y1="957.5499" x2="415.7599" y2="4.3376">
	<stop  offset="0" style="stop-color:#EFB54A"/>
	<stop  offset="1" style="stop-color:#FFE394"/>
</linearGradient>
<circle class="st0" cx="486" cy="486" r="481.6"/>
<g>
	<path class="st1" d="M740.9,258.2H231.1c-22.9,0-34.8,27.2-19.3,44.1l206.6,224.1c6,6.5,9.2,14.9,9.2,23.7v258.1
		c0,15.5,18.7,23.4,29.8,12.5l72-82.5c9.6-11.6,15-17.3,15-28.7V550.2c0-8.8,3.3-17.2,9.2-23.7l206.6-224.2
		C775.7,285.5,763.8,258.2,740.9,258.2z M486,385.8c-91.3,0-165.4-22.3-165.4-49.7c0-27.5,74-49.7,165.4-49.7s165.4,22.3,165.4,49.7
		C651.4,363.6,577.3,385.8,486,385.8z"/>
</g>
</svg>
