<svg id="Слой_1" data-name="Слой 1" xmlns="http://www.w3.org/2000/svg" viewBox="0 0 512 512"><defs><style>.cls-1{fill:#ff6160;}.cls-2{fill:#d3d3d3;}.cls-3{fill:#fff;}</style></defs><title>folder-red</title><circle class="cls-1" cx="256" cy="256" r="247"/><path class="cls-2" d="M395.74,358.77H116.11a1.06,1.06,0,0,1-1.07-1.06V166.91a28,28,0,0,1,28.06-28H354.61a42.23,42.23,0,0,1,42.22,42.23V357.71a1.05,1.05,0,0,1-1.06,1.06Z"/><path class="cls-3" d="M212,191.28a23.11,23.11,0,0,0-23.11-23.11H131.84A16.84,16.84,0,0,0,115,185v44.24h.2c0,.66-.2,1.31-.2,2V350a23.11,23.11,0,0,0,23.11,23.11H373.89A23.11,23.11,0,0,0,397,350h0V231.24a23.12,23.12,0,0,0-23.11-23.12h-162Z"/></svg>