<svg id="Слой_1" data-name="Слой 1" xmlns="http://www.w3.org/2000/svg" xmlns:xlink="http://www.w3.org/1999/xlink" viewBox="0 0 511 511"><defs><style>.cls-1{fill:url(#Безымянный_градиент_7);}</style><linearGradient id="Безымянный_градиент_7" x1="145.9" y1="413.88" x2="533.93" y2="79.4" gradientUnits="userSpaceOnUse"><stop offset="0" stop-color="#1b2f84"/><stop offset="1" stop-color="#3159f7"/></linearGradient></defs><title>home</title><path class="cls-1" d="M498.22,221.26l0,0L289.74,12.78a47,47,0,0,0-66.53,0L14.87,221.12c-.07.07-.15.14-.21.21A47,47,0,0,0,46,301.48a14.08,14.08,0,0,0,1.45.07h8.31V455A55.11,55.11,0,0,0,110.78,510h81.55a15,15,0,0,0,15-15V374.77a25.15,25.15,0,0,1,25.12-25.12h48.11a25.14,25.14,0,0,1,25.11,25.12V495a15,15,0,0,0,15,15h81.56A55.11,55.11,0,0,0,457.23,455V301.55h7.7a47,47,0,0,0,33.29-80.29Z"/></svg>