<svg id="Слой_1" data-name="Слой 1" xmlns="http://www.w3.org/2000/svg" xmlns:xlink="http://www.w3.org/1999/xlink" viewBox="0 0 512 512"><defs><style>.cls-1{fill:url(#Безымянный_градиент_2);}.cls-2{fill:#adbcf4;}.cls-3{fill:url(#Безымянный_градиент_2-2);}</style><linearGradient id="Безымянный_градиент_2" x1="64.63" y1="243.6" x2="434.96" y2="243.6" gradientUnits="userSpaceOnUse"><stop offset="0" stop-color="#1b2f84"/><stop offset="1" stop-color="#3159f7"/></linearGradient><linearGradient id="Безымянный_градиент_2-2" x1="134.92" y1="360.6" x2="368.96" y2="360.6" gradientTransform="matrix(-0.99, -0.1, -0.1, 0.99, 408.76, 27.76)" xlink:href="#Безымянный_градиент_2"/></defs><title>manage_folders</title><path class="cls-1" d="M435,151.16v235.6a1.3,1.3,0,0,1-1.31,1.31H66a1.38,1.38,0,0,1-.69-.19,1.3,1.3,0,0,1-.64-1.12V133.68A34.58,34.58,0,0,1,99.22,99.12H382.93A52,52,0,0,1,435,151.16Z"/><path class="cls-2" d="M447.37,220.37V381.52A31.38,31.38,0,0,1,416,412.88H96a31.4,31.4,0,0,1-30.75-25,33.29,33.29,0,0,1-.64-6.36V220.37c0-.93.22-1.82.29-2.72h-.29V157.6a22.86,22.86,0,0,1,22.86-22.84H165a31.37,31.37,0,0,1,31.38,31.37L196.08,189H416a31.43,31.43,0,0,1,31.39,31.39Z"/><path class="cls-3" d="M37.45,291.12a14.89,14.89,0,0,0-18.28,7.56L9.38,318.75a14.93,14.93,0,0,0,5.33,19.08l15.77,10.34A91,91,0,0,0,29.57,363l-16.93,8.32A14.84,14.84,0,0,0,5.1,389.61l7.23,21a14.82,14.82,0,0,0,17.2,9.74L48,416.48a93.31,93.31,0,0,0,9.82,11.1l-6.07,17.89a14.91,14.91,0,0,0,7.55,18.29l20.07,9.79a14.93,14.93,0,0,0,19.09-5.35l10.34-15.76a93.45,93.45,0,0,0,14.8.91l8.31,16.93a14.86,14.86,0,0,0,18.33,7.54l21-7.23A14.81,14.81,0,0,0,181,453.4l-3.87-18.47a93.4,93.4,0,0,0,11.1-9.83l17.89,6.08a14.93,14.93,0,0,0,18.29-7.56l9.79-20.07a14.93,14.93,0,0,0-5.33-19.08l-15.77-10.34a93.51,93.51,0,0,0,.9-14.8L230.91,351a14.88,14.88,0,0,0,7.55-18.35l-7.24-21A14.81,14.81,0,0,0,214,302l-18.46,3.87a93.49,93.49,0,0,0-9.83-11.11l6.07-17.89a14.93,14.93,0,0,0-7.56-18.29l-20.07-9.79a14.93,14.93,0,0,0-19.08,5.33l-10.34,15.78a93.72,93.72,0,0,0-14.81-.91L111.65,252a14.86,14.86,0,0,0-18.34-7.54l-21,7.23a14.81,14.81,0,0,0-9.74,17.2l3.86,18.47a94.9,94.9,0,0,0-11.1,9.82l-17.89-6.07ZM99.93,405.94A49.84,49.84,0,1,1,166.57,383a49.89,49.89,0,0,1-66.64,22.94Z"/></svg>