<svg id="Слой_1" data-name="Слой 1" xmlns="http://www.w3.org/2000/svg" viewBox="0 0 512 512"><defs><style>.cls-1{fill:#fcad31;}.cls-2{fill:#fcfcfc;}.cls-3{fill:none;stroke:#fcad31;stroke-miterlimit:10;stroke-width:13px;}</style></defs><title>note</title><circle class="cls-1" cx="256" cy="256" r="226.95"/><rect class="cls-2" x="118.27" y="108.24" width="249.61" height="302.37" rx="27.99" transform="translate(-33.62 36.21) rotate(-7.97)"/><path class="cls-1" d="M341.76,266.36,236.16,372a17.2,17.2,0,0,1-24.32,0L170.3,330.42a17.19,17.19,0,0,1,0-24.32h0a17.19,17.19,0,0,1,24.32,0L224,335.48,317.44,242a17.2,17.2,0,1,1,24.32,24.32Z"/><path class="cls-3" d="M219.45,187.5l-3.07-2.43a16.91,16.91,0,0,0-19.76-.89l-4,2.61a12,12,0,0,1-13.95-.63h0a16.91,16.91,0,0,0-21.53.46l-.57.49c-6.34,5.47-16.49,1.56-17.06-6.79,0-.27,0-.54,0-.82v-80a12,12,0,0,1,12-12h73a12,12,0,0,1,12,12v80c0,.27,0,.55,0,.82C235.91,188.62,226,192.67,219.45,187.5Z"/></svg>