<svg id="Слой_1" data-name="Слой 1" xmlns="http://www.w3.org/2000/svg" viewBox="0 0 512 512"><defs><style>.cls-1{fill:#fff;}.cls-2{fill:#bec3ce;}</style></defs><title>user</title><rect class="cls-1" width="512" height="512"/><path class="cls-2" d="M252.53,247.15c32,0,59.72-11.48,82.37-34.13S369,162.67,369,130.65,357.55,70.94,334.9,48.29s-50.37-34.13-82.37-34.13-59.72,11.48-82.37,34.13S136,98.65,136,130.65s11.49,59.73,34.14,82.38S220.53,247.15,252.53,247.15Z"/><path class="cls-2" d="M456.37,386.08a288.4,288.4,0,0,0-3.92-30.56,240.31,240.31,0,0,0-7.52-30.73,151.13,151.13,0,0,0-12.63-28.65,108,108,0,0,0-19.05-24.83,84,84,0,0,0-27.36-17.19A94.66,94.66,0,0,0,351,247.8c-4.94,0-9.71,2-18.93,8-5.68,3.7-12.32,8-19.73,12.72-6.33,4-14.92,7.82-25.52,11.24a99.18,99.18,0,0,1-62.43,0c-10.59-3.42-19.17-7.2-25.5-11.24-7.34-4.69-14-9-19.74-12.72-9.21-6-14-8-18.93-8a94.5,94.5,0,0,0-34.93,6.33,83.87,83.87,0,0,0-27.36,17.19,107.87,107.87,0,0,0-19,24.82A151.93,151.93,0,0,0,66.22,324.8a241.42,241.42,0,0,0-7.52,30.72,289.71,289.71,0,0,0-3.92,30.58c-.64,9.25-1,18.86-1,28.56,0,25.24,8,45.68,23.85,60.76,15.63,14.87,36.31,22.42,61.47,22.42H372c25.15,0,45.82-7.54,61.46-22.42,15.83-15.06,23.86-35.51,23.86-60.77C457.34,404.91,457,395.29,456.37,386.08Z"/></svg>