<svg id="Capa_1" data-name="Capa 1" xmlns="http://www.w3.org/2000/svg" viewBox="0 0 408 408"><defs><style>.cls-1{fill:#bec3ce;}</style></defs><title>gray-folder</title><path class="cls-1" d="M382.89,128.32a11.58,11.58,0,0,0,11.58-11.58v-7.48a34,34,0,0,0-33.62-33.95H211.56a11.59,11.59,0,0,1-8.86-4.12L175.36,38.68A4.65,4.65,0,0,0,171.62,37H47.15A34,34,0,0,0,13.53,71v45.76a11.58,11.58,0,0,0,11.58,11.58Z"/><path class="cls-1" d="M28.21,152.16a14.67,14.67,0,0,0-14.68,14.67V345.61a34,34,0,0,0,33.62,33.95h313.7a34,34,0,0,0,33.62-33.95V166.83a14.67,14.67,0,0,0-14.68-14.67Z"/></svg>