<svg id="Слой_1" data-name="Слой 1" xmlns="http://www.w3.org/2000/svg" viewBox="0 0 512 512"><defs><style>.cls-1{fill:#b6a162;}.cls-2{fill:#fff;stroke:#fff;stroke-miterlimit:10;}</style></defs><title>light-folder</title><path class="cls-1" d="M62,62.78H424a51.75,51.75,0,0,1,51.75,51.75V393.47a25.46,25.46,0,0,1-25.46,25.46H44.75a25.46,25.46,0,0,1-25.46-25.46v-288A42.69,42.69,0,0,1,62,62.78Z"/><path class="cls-2" d="M181.62,145.38A38.67,38.67,0,0,0,143,106.71H47.46a28.17,28.17,0,0,0-28.17,28.17v74h.34c-.1,1.13-.34,2.21-.34,3.35V410.83A38.68,38.68,0,0,0,58,449.51H452.33A38.68,38.68,0,0,0,491,410.83V212.22a38.67,38.67,0,0,0-38.67-38.67h-271Z"/></svg>